<svg width="39" height="39" viewBox="0 0 39 39" fill="none" xmlns="http://www.w3.org/2000/svg">
                      <g clip-path="url(#clip0_1_40)">
                      <path d="M29.8594 0H9.14062C4.0924 0 0 4.0924 0 9.14062V29.8594C0 34.9076 4.0924 39 9.14062 39H29.8594C34.9076 39 39 34.9076 39 29.8594V9.14062C39 4.0924 34.9076 0 29.8594 0Z" fill="#242938"/>
                      <path d="M19.5002 4.57031C11.0874 4.57031 4.26562 11.3907 4.26562 19.8048C4.26562 26.5358 8.63073 32.2463 14.684 34.2607C15.4452 34.4018 15.7248 33.9303 15.7248 33.528C15.7248 33.1646 15.7106 31.9646 15.7041 30.6916C11.4658 31.6132 10.5716 28.8941 10.5716 28.8941C9.87843 27.1332 8.87996 26.665 8.87996 26.665C7.49775 25.7194 8.98417 25.7389 8.98417 25.7389C10.514 25.8463 11.3196 27.3088 11.3196 27.3088C12.6784 29.6379 14.8835 28.9645 15.7528 28.5753C15.8896 27.5905 16.2843 26.9185 16.72 26.5381C13.3363 26.1529 9.77925 24.8465 9.77925 19.0091C9.77925 17.3459 10.3743 15.9868 11.3488 14.9199C11.1906 14.5362 10.6691 12.9867 11.4963 10.8883C11.4963 10.8883 12.7757 10.479 15.687 12.4498C16.9022 12.1124 18.2054 11.9431 19.5002 11.9374C20.7948 11.9431 22.0991 12.1124 23.3165 12.45C26.2243 10.4788 27.5019 10.8885 27.5019 10.8885C28.3311 12.9867 27.8094 14.5363 27.6512 14.9199C28.628 15.9868 29.2191 17.3459 29.2191 19.0091C29.2191 24.8605 25.6551 26.1489 22.2628 26.5259C22.8092 26.9988 23.2961 27.9258 23.2961 29.3472C23.2961 31.3856 23.2784 33.0261 23.2784 33.528C23.2784 33.9333 23.5526 34.4084 24.3249 34.2588C30.3748 32.242 34.7344 26.5336 34.7344 19.8048C34.7344 11.3909 27.9135 4.57031 19.5002 4.57031ZM9.97151 26.2721C9.93799 26.3479 9.81886 26.3705 9.71039 26.3186C9.59979 26.2689 9.53779 26.1656 9.57359 26.0898C9.60634 26.0118 9.72578 25.9901 9.83592 26.0424C9.94668 26.0921 10.0097 26.1963 9.97151 26.2721ZM10.7209 26.9408C10.6482 27.0083 10.5061 26.9769 10.4098 26.8704C10.3102 26.7642 10.2914 26.6222 10.3652 26.5538C10.44 26.4865 10.5778 26.518 10.6776 26.6242C10.7773 26.7318 10.7968 26.8727 10.7209 26.9408ZM11.2349 27.7963C11.1415 27.8612 10.9889 27.8004 10.8946 27.6649C10.8012 27.5294 10.8012 27.367 10.8965 27.3018C10.9911 27.2368 11.1415 27.2953 11.2372 27.4298C11.3303 27.5675 11.3303 27.7301 11.2349 27.7963ZM12.1043 28.7872C12.0208 28.8792 11.8431 28.8545 11.7128 28.7288C11.5796 28.606 11.5425 28.4318 11.6263 28.3396C11.7108 28.2473 11.8897 28.2733 12.0208 28.3979C12.1531 28.5204 12.1934 28.6961 12.1043 28.7872ZM13.228 29.1216C13.1911 29.241 13.0199 29.2952 12.8473 29.2445C12.6752 29.1923 12.5623 29.0526 12.5972 28.9319C12.633 28.8119 12.8049 28.7553 12.9788 28.8096C13.1509 28.8615 13.2638 29.0003 13.228 29.1216ZM14.5068 29.2636C14.511 29.3891 14.3648 29.4933 14.1837 29.4956C14.0015 29.4997 13.8541 29.3979 13.8522 29.2744C13.8522 29.1475 13.9952 29.0443 14.1773 29.0413C14.3586 29.0378 14.5068 29.1386 14.5068 29.2636ZM15.763 29.2154C15.7848 29.3379 15.659 29.4639 15.479 29.4974C15.3022 29.5297 15.1384 29.454 15.116 29.3324C15.0941 29.2067 15.2222 29.0809 15.3988 29.0483C15.579 29.0171 15.7402 29.0908 15.763 29.2154Z" fill="white"/>
                      </g>
                      <defs>
                      <clipPath id="clip0_1_40">
                      <rect width="39" height="39" fill="white"/>
                      </clipPath>
                      </defs>
                      </svg>