<svg width="39" height="36" viewBox="0 0 48 36" fill="none" xmlns="http://www.w3.org/2000/svg">
                  <g clip-path="url(#clip0_1_46)">
                  <path d="M10.8526 35.8228V17.3732L5.13084 12.1387L0 9.23389V32.5669C0 34.3684 1.45959 35.8228 3.25585 35.8228H10.8526Z" fill="#4285F4"/>
                  <path d="M36.8987 35.8228H44.4954C46.2971 35.8228 47.7513 34.363 47.7513 32.5669V9.23407L41.9398 12.5612L36.8987 17.3732V35.8228Z" fill="#34A853"/>
                  <path d="M10.8526 17.3733L10.074 10.1645L10.8526 3.26501L23.8757 13.0324L36.8987 3.26501L37.7696 9.79202L36.8987 17.3733L23.8757 27.1407L10.8526 17.3733Z" fill="#EA4335"/>
                  <path d="M36.8987 3.265V17.3733L47.7513 9.23391V4.89283C47.7513 0.866615 43.1552 -1.42862 39.9376 0.985993L36.8987 3.265Z" fill="#FBBC04"/>
                  <path d="M0 9.23394L4.99132 12.9776L10.8526 17.3733V3.26502L7.81368 0.986018C4.59047 -1.42878 0 0.866639 0 4.89267V9.23394Z" fill="#C5221F"/>
                  </g>
                  <defs>
                  <clipPath id="clip0_1_46">
                  <rect width="47.7513" height="36" fill="white"/>
                  </clipPath>
                  </defs>
                  </svg>