                  <svg width="39" height="39" viewBox="0 0 39 39" fill="none" xmlns="http://www.w3.org/2000/svg">
                    <g clip-path="url(#clip0_1_37)">
                    <path d="M35.3438 0.914081H3.65625C2.93728 0.906764 2.24478 1.18496 1.73068 1.68763C1.21659 2.1903 0.922902 2.87638 0.914062 3.59533V35.4108C0.9245 36.1287 1.21889 36.8132 1.73281 37.3146C2.24673 37.8159 2.93832 38.0933 3.65625 38.086H35.3438C36.0628 38.0917 36.7548 37.8125 37.2686 37.3095C37.7825 36.8066 38.0763 36.1206 38.0859 35.4017V3.58619C38.0731 2.86935 37.7779 2.18654 37.2644 1.68618C36.7509 1.18582 36.0607 0.908346 35.3438 0.914081Z" fill="#0076B2"/>
                    <path d="M6.41672 14.8474H11.9346V32.6016H6.41672V14.8474ZM9.17719 6.01147C9.81006 6.01147 10.4287 6.19918 10.9549 6.55085C11.4811 6.90252 11.8911 7.40235 12.1332 7.98711C12.3752 8.57187 12.4384 9.21528 12.3147 9.83595C12.191 10.4566 11.886 11.0267 11.4383 11.474C10.9906 11.9213 10.4202 12.2257 9.79945 12.3488C9.17866 12.4719 8.53531 12.4081 7.95079 12.1655C7.36626 11.9229 6.86682 11.5124 6.51565 10.9859C6.16448 10.4594 5.97737 9.84052 5.97797 9.20765C5.97878 8.35969 6.31619 7.54674 6.91607 6.94743C7.51596 6.34812 8.32923 6.01147 9.17719 6.01147ZM15.3959 14.8474H20.6852V17.2849H20.7584C21.4957 15.8894 23.2934 14.4178 25.9777 14.4178C31.5656 14.4056 32.6016 18.0832 32.6016 22.8516V32.6016H27.0837V23.9637C27.0837 21.907 27.0471 19.2593 24.2166 19.2593C21.386 19.2593 20.9046 21.5018 20.9046 23.8296V32.6016H15.3959V14.8474Z" fill="white"/>
                    </g>
                    <defs>
                    <clipPath id="clip0_1_37">
                    <rect width="39" height="39" fill="white"/>
                    </clipPath>
                    </defs>
                    </svg>
